{"title":"Spectre (2015) 1080p[Dual Audio][ENG(5.1)-HINDI(5.1)]~{PHDR}~","uid":13551814,"size":4110682880,"categoryP":"video","categoryS":"hd___movies","magnet":"?xt=urn:btih:d8cce356e101d76156e4e1c36ef98e9f62c00002&amp;dn=Spectre+%282015%29+1080p%5BDual+Audio%5D%5BENG%285.1%29-HINDI%285.1%29%5D%7E%7BPHDR%7D%7E&amp;tr=udp%3A%2F%2Ftracker.leechers-paradise.org%3A6969&amp;tr=udp%3A%2F%2Fzer0day.ch%3A1337&amp;tr=udp%3A%2F%2Fopen.demonii.com%3A1337&amp;tr=udp%3A%2F%2Ftracker.coppersurfer.tk%3A6969&amp;tr=udp%3A%2F%2Fexodus.desync.com%3A6969","seeders":2,"leechers":9,"uploader":"SaM","files":14,"time":1455557510,"description":"Spectre (2015) 1080p[Dual Audio][ENG(5.1)-HINDI(5.1)]~{PHDR}~ \r\n\r\nStoryline :\r\n\r\nA cryptic message from Bond's past sends him on a trail to uncover a sinister organization. While M battles political forces to keep the secret service alive, Bond peels back the layers of deceit to reveal the terrible truth behind SPECTRE.\r\n\r\n\r\nCast :\r\n\r\nDaniel Craig ... James Bond\r\nChristoph Waltz ... Blofeld\r\nLéa Seydoux ... Dr. Madeleine Swann\r\nRalph Fiennes ... M\r\nMonica Bellucci ... Lucia Sciarra\r\nBen Whishaw ... Q\r\nNaomie Harris ... Eve Moneypenny\r\nDave Bautista ... Mr. Hinx\r\n\r\n\r\nGenre :\r\nAction | Adventure | Thriller\r\n\r\nGeneral\r\n\r\nComplete name : Spectre (2015) 1080p[Dual Audio][ENG(5.1)-HINDI(5.1)]~{PHDR}~ (1).mkv\r\nFormat : Matroska\r\nFile size : 3.79 GiB\r\nDuration : 2h 28mn\r\nOverall bit rate : 3 662 Kbps\r\nMovie name : Spectre (2015) 1080p[Dual Audio][ENG(5.1)-HINDI(5.1)]~{PHDR}~\r\n\r\n\r\nVideo\r\nID : 1\r\nFormat : AVC\r\nFormat/Info : Advanced Video Codec\r\nFormat profile :   \r\nFormat settings, CABAC : Yes\r\nFormat settings, ReFrames : 5 frames\r\nCodec ID : V_MPEG4/ISO/AVC\r\nDuration : 2h 28mn\r\nBit rate : 2 559 Kbps\r\nWidth : 1 920 pixels\r\nHeight : 808 pixels\r\nDisplay aspect ratio : 2.40:1\r\nFrame rate mode : Constant\r\nFrame rate : 23.976 (24000/1001) fps\r\nColor space : YUV\r\nChroma subsampling : 4:2:0\r\nBit depth : 8 bits\r\nScan type : Progressive\r\nBits/(Pixel*Frame) : 0.069\r\nStream size : 2.65 GiB (70%)\r\nDefault : Yes\r\nForced : No\r\n\r\nAudio #1\r\nID : 2\r\nFormat : AC-3\r\nFormat/Info : Audio Coding 3\r\nMode extension : CM (complete main)\r\nFormat settings, Endianness : Big\r\nCodec ID : A_AC3\r\nDuration : 2h 28mn\r\nBit rate mode : Constant\r\nBit rate : 448 Kbps\r\nChannel(s) : 6 channels\r\nChannel positions : Front: L C R, Side: L R, LFE\r\nSampling rate : 48.0 KHz\r\nFrame rate : 31.250 fps (1536 spf)\r\nCompression mode : Lossy\r\nStream size : 475 MiB (12%)\r\nTitle : Bluray~{PHDR}~\r\nLanguage : Hindi\r\nDefault : Yes\r\nForced : No\r\n\r\nAudio #2\r\nID : 3\r\nFormat : AC-3\r\nFormat/Info : Audio Coding 3\r\nMode extension : CM (complete main)\r\nFormat settings, Endianness : Big\r\nCodec ID : A_AC3\r\nDuration : 2h 28mn\r\nBit rate mode : Constant\r\nBit rate : 640 Kbps\r\nChannel(s) : 6 channels\r\nChannel positions : Front: L C R, Side: L R, LFE\r\nSampling rate : 48.0 KHz\r\nFrame rate : 31.250 fps (1536 spf)\r\nCompression mode : Lossy\r\nStream size : 678 MiB (17%)\r\nTitle : Bluray~{PHDR}~\r\nLanguage : English\r\nDefault : No\r\nForced : No\r\n\r\nText #1\r\nID : 4\r\nFormat : PGS\r\nMuxing mode : zlib\r\nCodec ID : S_HDMV/PGS\r\nCodec ID/Info : Picture based subtitle format used on BDs/HD-DVDs\r\nDuration : 2h 19mn\r\nBit rate : 7 932 bps\r\nCount of elements : 2724\r\nStream size : 7.93 MiB (0%)\r\nTitle : Bluray SDH\r\nLanguage : English\r\nDefault : Yes\r\nForced : No\r\n\r\nText #2\r\nID : 5\r\nFormat : PGS\r\nMuxing mode : zlib\r\nCodec ID : S_HDMV/PGS\r\nCodec ID/Info : Picture based subtitle format used on BDs/HD-DVDs\r\nDuration : 2h 27mn\r\nBit rate : 6 131 bps\r\nCount of elements : 2289\r\nStream size : 6.45 MiB (0%)\r\nTitle : Bluray\r\nLanguage : Hindi\r\nDefault : No\r\nForced : No \r\n \nhttp://extraimago.com/image/fdv \nhttp://extraimago.com/image/fdu \nhttp://extraimago.com/image/fdV \nhttp://extraimago.com/image/fd6 \nhttp://extraimago.com/image/fdx \nhttp://extraimago.com/image/fdt \nhttp://extraimago.com/image/fdo \nhttp://extraimago.com/image/fdk \nhttp://extraimago.com/image/fdH \nhttp://extraimago.com/image/fdF \nhttp://extraimago.com/image/fdD","torrent":{"xt":"urn:btih:d8cce356e101d76156e4e1c36ef98e9f62c00002","amp;dn":"Spectre+%282015%29+1080p%5BDual+Audio%5D%5BENG%285.1%29-HINDI%285.1%29%5D%7E%7BPHDR%7D%7E","amp;tr":["udp%3A%2F%2Ftracker.leechers-paradise.org%3A6969","udp%3A%2F%2Fzer0day.ch%3A1337","udp%3A%2F%2Fopen.demonii.com%3A1337","udp%3A%2F%2Ftracker.coppersurfer.tk%3A6969","udp%3A%2F%2Fexodus.desync.com%3A6969"],"infoHash":"d8cce356e101d76156e4e1c36ef98e9f62c00002","infoHashBuffer":{"type":"Buffer","data":[216,204,227,86,225,1,215,97,86,228,225,195,110,249,142,159,98,192,0,2]},"announce":[],"urlList":[]}}